<?xml version="1.0" encoding="utf-8"?>
<!-- Generator: Adobe Illustrator 23.0.1, SVG Export Plug-In . SVG Version: 6.00 Build 0)  -->
<svg version="1.1" id="Layer_1" xmlns="http://www.w3.org/2000/svg" xmlns:xlink="http://www.w3.org/1999/xlink" x="0px" y="0px"
	 viewBox="0 0 407.5 448" style="enable-background:new 0 0 407.5 448;" xml:space="preserve">
<style type="text/css">
	.st0{display:none;fill:#FFE812;}
	.st1{fill:#FFFFFF;}
</style>
<path class="st0" d="M3228.6,2304.7c0,107.9-87.4,195.3-195.3,195.3H923.9c-107.9,0-195.3-87.4-195.3-195.3V195.3
	C728.6,87.4,816,0,923.9,0h2109.4c107.9,0,195.3,87.4,195.3,195.3L3228.6,2304.7L3228.6,2304.7z"/>
<g>
	<path class="st1" d="M205.1,24.4L205.1,24.4C96.6,24.4,8.6,93.8,8.6,179.4c0,55.3,36.8,103.8,92.1,131.3c-3,10.4-19.3,66.8-20,71.2
		c0,0-0.4,3.3,1.8,4.6c2.2,1.3,4.7,0.3,4.7,0.3c6.2-0.9,71.7-46.9,83-54.9c11.3,1.6,23,2.4,34.9,2.4c108.5,0,196.5-69.4,196.5-154.9
		C401.5,93.8,313.6,24.4,205.1,24.4z M107.8,222.6c0,6-5.1,10.8-11.3,10.8c-6.3,0-11.3-4.8-11.3-10.8v-67.3H67.4
		c-6.1,0-11.1-5-11.1-11.1c0-6.1,5-11.1,11.1-11.1h58c6.1,0,11.1,5,11.1,11.1c0,6.1-5,11.1-11.1,11.1h-17.7V222.6z M203,231.7
		c-2.3,1-4.7,1.6-7.2,1.6l0,0c-4.7,0-8.3-1.9-9.4-5l-5.6-14.7h-34.6l-5.6,14.7c-1.1,3.1-4.7,5-9.4,5c-2.5,0-5-0.5-7.2-1.6
		c-3.1-1.4-6.1-5.4-2.7-16.1l27.1-71.4c1.9-5.4,7.7-11,15.1-11.2c7.4,0.2,13.2,5.8,15.1,11.2l27.1,71.3
		C209.2,226.3,206.1,230.3,203,231.7z M260.3,231.8H224c-6,0-10.9-4.7-10.9-10.4v-77c0-6.3,5.2-11.3,11.6-11.3
		c6.4,0,11.6,5.1,11.6,11.3V211h24.1c6,0,10.9,4.7,10.9,10.4C271.2,227.1,266.3,231.8,260.3,231.8z M349.1,223.2
		c-0.4,3-2,5.7-4.4,7.5c-2,1.5-4.3,2.3-6.8,2.3c-3.6,0-6.9-1.7-9-4.5l-26.6-35.2l-3.9,3.9v24.7c0,6.3-5.1,11.3-11.3,11.3l0,0
		c-6.3,0-11.3-5.1-11.3-11.3v-77.5c0-6.3,5.1-11.3,11.3-11.3s11.3,5.1,11.3,11.3v24.4l31.6-31.6c1.6-1.6,3.9-2.5,6.3-2.5
		c2.8,0,5.7,1.2,7.8,3.3c2,2,3.2,4.5,3.3,7.2c0.2,2.7-0.7,5.1-2.5,6.9L319,177.9l27.9,37C348.7,217.2,349.5,220.3,349.1,223.2z"/>
	<polygon class="st1" points="163.5,161.3 152.2,193.5 174.8,193.5 174.8,193.5 	"/>
</g>
</svg>
