<?xml version="1.0" encoding="utf-8"?>
<!-- Generator: Adobe Illustrator 23.0.1, SVG Export Plug-In . SVG Version: 6.00 Build 0)  -->
<svg version="1.1"
	 id="svg7898" xmlns:cc="http://creativecommons.org/ns#" xmlns:dc="http://purl.org/dc/elements/1.1/" xmlns:rdf="http://www.w3.org/1999/02/22-rdf-syntax-ns#" xmlns:svg="http://www.w3.org/2000/svg"
	 xmlns="http://www.w3.org/2000/svg" xmlns:xlink="http://www.w3.org/1999/xlink" x="0px" y="0px" viewBox="0 0 50 50"
	 style="enable-background:new 0 0 50 50;" xml:space="preserve">
<style type="text/css">
	.st0{clip-path:url(#SVGID_2_);}
	.st1{display:none;}
	.st2{display:inline;fill:#00B900;}
	.st3{fill:#FFFFFF;}
</style>
<g id="g7906" transform="matrix(1.25,0,0,-1.25,-424.5206,605.65166)">
	<g id="g7928">
		<g>
			<defs>
				<rect id="SVGID_1_" x="-205.2" y="25.6" width="1052.4" height="744.1"/>
			</defs>
			<clipPath id="SVGID_2_">
				<use xlink:href="#SVGID_1_"  style="overflow:visible;"/>
			</clipPath>
			<g id="g7930" class="st0">
				<g id="g7958" transform="matrix(1.6639441,0,0,1.6639441,535.69699,483.72129)" class="st1">
					<path id="path7960" class="st2" d="M-60.1,60.1h-91.2c-14.3,0-26.1-11.6-26.1-25.9v-91.2c0-14.3,11.6-26.1,25.9-26.1h91.2
						c14.3,0,26.1,11.6,26.1,25.9V34C-34.2,48.3-45.8,60.1-60.1,60.1"/>
				</g>
				<path class="st3" d="M379.6,465.9c0,8.9-9,16.2-20,16.2c-11,0-20-7.3-20-16.2c0-8,7.1-14.7,16.7-16c0.7-0.1,1.5-0.4,1.8-1
					c0.2-0.5,0.1-1.3,0.1-1.8c0,0-0.2-1.4-0.3-1.7c-0.1-0.5-0.4-2,1.7-1.1c2.1,0.9,11.5,6.8,15.7,11.6h0
					C378.2,459.1,379.6,462.4,379.6,465.9z M352.6,461.2c0-0.2-0.2-0.4-0.4-0.4h-5.6h0c-0.1,0-0.2,0-0.3,0.1c0,0,0,0,0,0
					c0,0,0,0,0,0c-0.1,0.1-0.1,0.2-0.1,0.3v0v8.7c0,0.2,0.2,0.4,0.4,0.4h1.4c0.2,0,0.4-0.2,0.4-0.4v-6.9h3.8c0.2,0,0.4-0.2,0.4-0.4
					V461.2z M355.9,461.2c0-0.2-0.2-0.4-0.4-0.4h-1.4c-0.2,0-0.4,0.2-0.4,0.4v8.7c0,0.2,0.2,0.4,0.4,0.4h1.4c0.2,0,0.4-0.2,0.4-0.4
					V461.2z M365.6,461.2c0-0.2-0.2-0.4-0.4-0.4h-1.4c0,0-0.1,0-0.1,0c0,0,0,0,0,0c0,0,0,0,0,0c0,0,0,0,0,0c0,0,0,0,0,0c0,0,0,0,0,0
					c0,0,0,0,0,0c0,0,0,0,0,0c0,0,0,0,0,0c0,0-0.1,0.1-0.1,0.1l-4,5.4v-5.2c0-0.2-0.2-0.4-0.4-0.4h-1.4c-0.2,0-0.4,0.2-0.4,0.4v8.7
					c0,0.2,0.2,0.4,0.4,0.4h1.4c0,0,0,0,0,0c0,0,0,0,0,0c0,0,0,0,0,0c0,0,0,0,0,0c0,0,0,0,0,0c0,0,0,0,0,0c0,0,0,0,0,0c0,0,0,0,0,0
					c0,0,0,0,0,0c0,0,0,0,0,0c0,0,0,0,0,0c0,0,0,0,0,0c0,0,0,0,0,0c0,0,0,0,0,0c0,0,0,0,0,0c0,0,0,0,0,0c0,0,0,0,0,0l0,0
					c0,0,0,0,0,0l4-5.4v5.2c0,0.2,0.2,0.4,0.4,0.4h1.4c0.2,0,0.4-0.2,0.4-0.4V461.2z M373.3,468.5c0-0.2-0.2-0.4-0.4-0.4h-3.8v-1.5
					h3.8c0.2,0,0.4-0.2,0.4-0.4v-1.4c0-0.2-0.2-0.4-0.4-0.4h-3.8v-1.5h3.8c0.2,0,0.4-0.2,0.4-0.4v-1.4c0-0.2-0.2-0.4-0.4-0.4h-5.6h0
					c-0.1,0-0.2,0-0.3,0.1c0,0,0,0,0,0c0,0,0,0,0,0c-0.1,0.1-0.1,0.2-0.1,0.3v0v8.7v0c0,0.1,0,0.2,0.1,0.3c0,0,0,0,0,0c0,0,0,0,0,0
					c0.1,0.1,0.2,0.1,0.3,0.1h0h5.6c0.2,0,0.4-0.2,0.4-0.4V468.5z"/>
			</g>
		</g>
	</g>
</g>
</svg>
