<?xml version="1.0" encoding="UTF-8" standalone="no"?>
<!DOCTYPE svg PUBLIC "-//W3C//DTD SVG 1.1//EN" "http://www.w3.org/Graphics/SVG/1.1/DTD/svg11.dtd">
<svg width="100%" height="100%" viewBox="0 0 40 40" version="1.1" xmlns="http://www.w3.org/2000/svg" xmlns:xlink="http://www.w3.org/1999/xlink" xml:space="preserve" xmlns:serif="http://www.serif.com/" style="fill-rule:evenodd;clip-rule:evenodd;stroke-linejoin:round;stroke-miterlimit:1.41421;">
    <g transform="matrix(1,0,0,1,-42.5,0)">
        <g id="wordpress-Logo" transform="matrix(0.08,0,0,0.08,62.5,20)">
            <g transform="matrix(1,0,0,1,-250,-250)">
                <clipPath id="_clip1">
                    <rect x="0" y="0" width="500" height="500"/>
                </clipPath>
                <g clip-path="url(#_clip1)">
                    <g transform="matrix(1.0755,0,0,1.0755,-315.927,-150.156)">
                        <path d="M526.185,172.179C578.324,172.179 625.797,192.159 661.383,224.871C643.941,224.403 626.535,234.771 625.815,258.513C624.348,306.51 683.208,316.734 651.492,413.277L625.257,493.134L553.806,282.66C552.699,279.402 553.986,277.548 557.991,277.548L578.191,277.548C579.241,277.548 580.1,276.652 580.1,275.554L580.1,263.589C580.1,262.492 579.239,261.55 578.191,261.596C539.937,263.269 501.907,263.28 464.107,261.596C463.054,261.551 462.199,262.496 462.199,263.594L462.199,275.558C462.199,276.655 463.058,277.553 464.108,277.553L484.419,277.553C488.937,277.553 490.202,279.058 491.267,281.97L520.625,362.259L476.462,495.612L403.868,281.79C402.968,279.108 404.057,277.551 406.64,277.551L429.783,277.551C430.833,277.551 431.691,276.655 431.691,275.557L431.691,263.593C431.691,262.495 430.83,261.544 429.783,261.599C405.501,262.889 381.127,263.148 358.422,263.381C394.052,208.495 455.874,172.175 526.173,172.175L526.172,172.174L526.185,172.179ZM701.973,276.876C717.331,305.173 726.052,337.594 726.052,372.042C726.052,447.646 684.045,513.45 622.111,547.416L684.445,370.863C694.102,343.539 703.066,306.612 701.968,276.876L701.968,276.876L701.973,276.876ZM593.1,560.412C572.175,567.855 549.657,571.914 526.185,571.914C505.962,571.914 486.45,568.899 468.054,563.319L529.627,386.865L593.099,560.421L593.099,560.421L593.1,560.412ZM440.658,552.726C373.067,520.671 326.313,451.809 326.313,372.051C326.313,342.484 332.745,314.417 344.272,289.165L440.662,552.73L440.663,552.729L440.658,552.726ZM526.179,153.423C646.896,153.423 744.798,251.325 744.798,372.042C744.798,492.759 646.896,590.661 526.179,590.661C405.462,590.661 307.56,492.759 307.56,372.042C307.56,251.325 405.462,153.423 526.179,153.423ZM526.179,139.604C654.528,139.604 758.622,243.698 758.622,372.047C758.622,500.396 654.528,604.49 526.179,604.49C397.83,604.49 293.736,500.396 293.736,372.047C293.736,243.698 397.83,139.604 526.179,139.604Z" style="fill:rgb(121,164,210);"/>
                    </g>
                </g>
            </g>
        </g>
    </g>
</svg>
